<?xml version="1.0" standalone="no"?>
<!DOCTYPE svg PUBLIC "-//W3C//DTD SVG 20010904//EN"
 "http://www.w3.org/TR/2001/REC-SVG-20010904/DTD/svg10.dtd">
<svg version="1.0" xmlns="http://www.w3.org/2000/svg"
 width="611.000000pt" height="611.000000pt" viewBox="0 0 611.000000 611.000000"
 preserveAspectRatio="xMidYMid meet">

<g transform="translate(0.000000,611.000000) scale(0.100000,-0.100000)"
fill="#000000" stroke="none">
<path d="M2915 4780 c-78 -8 -255 -46 -325 -71 -86 -30 -191 -74 -255 -107
-90 -45 -205 -119 -212 -137 -2 -8 -24 -27 -47 -42 -41 -28 -207 -198 -236
-242 -8 -13 -31 -44 -50 -70 -143 -186 -223 -395 -282 -731 -24 -140 -8 -417
33 -560 5 -19 14 -59 19 -88 14 -81 107 -299 146 -343 8 -8 14 -20 14 -25 1
-10 65 -99 137 -189 63 -78 227 -239 278 -272 22 -14 54 -38 72 -54 53 -46
257 -140 423 -195 180 -59 468 -84 630 -54 36 6 88 16 115 20 28 4 63 13 79
19 16 6 48 16 72 21 23 5 114 44 201 86 160 77 322 186 367 247 11 15 32 35
47 45 14 9 44 38 65 63 62 73 108 130 118 148 5 8 13 20 18 26 27 33 68 104
118 205 82 166 93 197 131 385 26 130 31 169 36 290 4 111 1 151 -21 270 -47
261 -95 394 -221 607 -81 138 -234 315 -340 393 -22 16 -62 50 -90 75 -32 30
-93 67 -170 104 -66 31 -132 63 -146 71 -14 8 -43 19 -65 24 -21 5 -79 21
-129 36 -161 46 -346 62 -530 45z m440 -149 c252 -60 245 -57 420 -170 122
-78 133 -86 191 -137 102 -90 119 -108 221 -236 107 -134 187 -280 233 -423
12 -38 31 -95 41 -125 23 -71 49 -257 49 -356 0 -239 -97 -563 -234 -776 -57
-90 -154 -206 -255 -305 -52 -51 -98 -93 -102 -93 -5 0 -34 -21 -65 -46 -128
-104 -365 -201 -588 -239 -169 -29 -437 -12 -563 35 -30 11 -61 20 -70 20 -32
0 -286 123 -338 164 -22 18 -60 45 -85 61 -52 35 -214 196 -274 274 -46 60
-149 220 -171 266 -32 68 -85 200 -85 215 -1 8 -8 33 -16 55 -26 70 -54 256
-54 362 0 120 23 291 51 370 10 31 19 62 19 70 0 31 77 205 129 292 31 51 61
102 67 113 6 10 28 38 47 61 20 23 52 62 71 87 44 57 214 207 269 239 23 13
62 38 87 56 74 53 199 111 300 139 173 47 218 53 405 55 166 1 190 -2 300 -28z"/>
<path d="M2695 4320 c-16 -4 -59 -23 -95 -41 -57 -31 -69 -42 -112 -112 -60
-99 -78 -162 -87 -312 -6 -98 -12 -130 -33 -175 -56 -119 -54 -139 18 -203
l41 -37 6 40 c3 22 19 61 36 87 17 26 34 64 37 85 6 36 25 50 39 28 16 -25
117 -59 195 -66 117 -9 193 8 288 65 61 37 82 56 100 91 13 25 30 52 38 60 7
9 20 34 28 57 8 22 33 68 55 101 23 33 41 64 41 69 0 6 7 17 17 24 20 17 93
171 93 197 0 11 -8 26 -18 35 -17 15 -54 17 -338 16 -175 -1 -332 -4 -349 -9z
m385 -126 c69 -4 126 -7 128 -9 5 -4 -39 -89 -49 -95 -4 -3 -17 -28 -29 -55
-12 -27 -25 -52 -29 -55 -3 -3 -20 -31 -36 -63 -41 -78 -90 -130 -155 -162
-46 -23 -67 -28 -131 -27 -70 0 -83 4 -158 42 -89 47 -86 42 -82 145 3 59 24
122 63 187 51 83 121 111 263 102 50 -3 146 -7 215 -10z"/>
<path d="M3685 4271 c-32 -7 -35 -16 -49 -144 -6 -60 -76 -215 -137 -303 -16
-24 -29 -47 -29 -52 0 -5 -15 -29 -34 -53 -18 -24 -46 -69 -61 -99 -15 -30
-40 -70 -55 -90 -37 -47 -90 -170 -90 -210 0 -111 58 -289 110 -335 12 -11 37
-40 55 -65 33 -44 50 -54 178 -100 23 -8 27 -15 27 -50 0 -22 7 -56 14 -75 14
-33 17 -35 64 -35 58 0 71 12 65 60 -13 100 -12 102 37 114 97 25 177 101 248
237 31 58 42 93 47 145 4 38 8 83 10 101 6 54 -21 129 -69 199 -26 36 -58 88
-71 114 -14 27 -36 61 -50 76 -14 15 -25 31 -25 36 0 5 -16 33 -35 63 -90 141
-93 156 -73 338 12 103 11 110 -7 123 -20 15 -24 15 -70 5z m6 -483 c41 -81
122 -210 180 -288 47 -63 80 -132 86 -181 8 -70 -26 -170 -84 -251 -56 -76
-83 -99 -121 -101 l-27 -2 -5 195 -5 195 -40 3 c-24 2 -48 -3 -60 -12 -19 -14
-20 -24 -17 -195 4 -203 3 -207 -63 -175 -30 14 -98 89 -129 141 -11 20 -46
156 -46 184 0 27 26 100 40 109 8 6 72 109 115 185 15 28 48 76 71 108 24 33
44 64 44 71 0 12 28 56 35 56 3 0 14 -19 26 -42z"/>
<path d="M1982 3394 c-48 -33 -23 -83 83 -160 21 -16 46 -36 55 -44 14 -14 59
-51 120 -99 l25 -19 -28 -89 c-16 -48 -36 -110 -46 -138 -61 -175 -65 -191
-66 -270 0 -120 37 -212 113 -279 88 -78 133 -100 227 -111 28 -3 91 -12 140
-20 50 -8 128 -17 175 -21 93 -7 259 -35 504 -84 133 -27 163 -30 187 -20 24
10 29 18 29 46 0 44 -25 60 -126 80 -111 21 -346 84 -361 96 -7 6 -13 16 -13
23 0 7 -6 18 -14 24 -36 30 -106 150 -115 197 -16 81 -50 220 -65 262 -34 95
-157 211 -331 312 -57 34 -90 57 -144 106 -25 22 -69 55 -98 73 -28 17 -57 39
-65 48 -23 29 -130 103 -147 103 -9 0 -27 -7 -39 -16z m429 -422 c14 -9 50
-34 80 -54 30 -21 65 -46 79 -55 46 -32 98 -96 110 -137 34 -112 40 -137 50
-211 11 -71 16 -84 49 -117 20 -20 56 -57 79 -82 l44 -46 -61 0 c-33 0 -94 5
-136 10 -41 6 -110 15 -152 20 -189 25 -265 90 -298 256 -6 30 5 70 70 269 9
28 21 70 26 95 18 81 18 81 60 52z"/>
</g>
</svg>
